<?xml version="1.0" encoding="UTF-8"?>
<svg width="22px" height="30px" viewBox="0 0 22 30" version="1.1" xmlns="http://www.w3.org/2000/svg" xmlns:xlink="http://www.w3.org/1999/xlink">
    <!-- Generator: sketchtool 47.1 (45422) - http://www.bohemiancoding.com/sketch -->
    <title>A5394CBC-B3E1-4EE3-8D4F-1AF670E75903</title>
    <desc>Created with sketchtool.</desc>
    <defs></defs>
    <g id="Page-1" stroke="none" stroke-width="1" fill="none" fill-rule="evenodd">
        <g id="Assets" transform="translate(-196.000000, -219.000000)" fill="#B1BFCD">
            <path d="M214.74606,229.551461 C214.744779,225.047288 211.074642,221.345121 206.609204,221.343655 C202.029837,221.342097 198.351282,224.994878 198.351007,229.543765 C198.350733,234.080648 202.019314,237.762566 206.545056,237.767697 C211.063387,237.772828 214.747341,234.082023 214.74606,229.551461 M207.715452,245.785012 C207.715452,246.359051 207.71957,246.907253 207.714262,247.45527 C207.70868,248.037465 207.360398,248.496788 206.83889,248.624516 C206.079643,248.810517 205.397721,248.274319 205.383263,247.471672 C205.374752,246.998513 205.381524,246.525079 205.381524,246.051828 L205.381524,245.785012 C204.860657,245.785012 204.366785,245.785287 203.872913,245.785012 C203.166924,245.784645 202.653194,245.314876 202.635075,244.6537 C202.616682,243.981712 203.118698,243.470619 203.831642,243.451561 C204.265942,243.439924 204.700791,243.448904 205.135366,243.448537 L205.381524,243.448537 L205.381524,242.99407 C205.381524,242.100895 205.373746,241.207537 205.386923,240.314638 C205.390309,240.090061 205.325155,240.031237 205.10224,239.996144 C201.616859,239.447302 198.973632,237.640519 197.282186,234.545103 C195.104189,230.558986 195.751338,225.698569 198.840212,222.377385 C200.57183,220.515535 202.712126,219.416293 205.230626,219.087628 C210.638695,218.381738 215.721267,222.012803 216.851857,227.3735 C217.781767,231.782657 215.826136,236.270429 211.964838,238.593068 C210.707326,239.349444 209.350802,239.819397 207.897737,240.011171 C207.785822,240.025923 207.713713,240.047455 207.714171,240.184253 C207.717465,241.260223 207.716001,242.3361 207.716001,243.448537 C207.809248,243.448537 207.889044,243.448262 207.968931,243.448629 C208.433886,243.450919 208.899756,243.436534 209.363705,243.459899 C209.970316,243.490319 210.415231,243.946069 210.460802,244.54613 C210.50436,245.12017 210.115632,245.638226 209.535284,245.761097 C209.395825,245.790601 209.247581,245.783271 209.103363,245.784095 C208.647925,245.786661 208.192486,245.785012 207.715452,245.785012" id="Page-1"></path>
        </g>
    </g>
</svg>