<?xml version="1.0" encoding="UTF-8"?>
<svg width="22px" height="30px" viewBox="0 0 22 30" version="1.1" xmlns="http://www.w3.org/2000/svg" xmlns:xlink="http://www.w3.org/1999/xlink">
    <!-- Generator: sketchtool 47.1 (45422) - http://www.bohemiancoding.com/sketch -->
    <title>D006EEF7-0066-4326-BEC9-8057EEEAFF90</title>
    <desc>Created with sketchtool.</desc>
    <defs></defs>
    <g id="Page-1" stroke="none" stroke-width="1" fill="none" fill-rule="evenodd">
        <g id="Assets" transform="translate(-356.000000, -219.000000)" fill="#FFFFFF">
            <path d="M374.74606,229.551461 C374.744779,225.047288 371.074642,221.345121 366.609204,221.343655 C362.029837,221.342097 358.351282,224.994878 358.351007,229.543765 C358.350733,234.080648 362.019314,237.762566 366.545056,237.767697 C371.063387,237.772828 374.747341,234.082023 374.74606,229.551461 M367.715452,245.785012 C367.715452,246.359051 367.71957,246.907253 367.714262,247.45527 C367.70868,248.037465 367.360398,248.496788 366.83889,248.624516 C366.079643,248.810517 365.397721,248.274319 365.383263,247.471672 C365.374752,246.998513 365.381524,246.525079 365.381524,246.051828 L365.381524,245.785012 C364.860657,245.785012 364.366785,245.785287 363.872913,245.785012 C363.166924,245.784645 362.653194,245.314876 362.635075,244.6537 C362.616682,243.981712 363.118698,243.470619 363.831642,243.451561 C364.265942,243.439924 364.700791,243.448904 365.135366,243.448537 L365.381524,243.448537 L365.381524,242.99407 C365.381524,242.100895 365.373746,241.207537 365.386923,240.314638 C365.390309,240.090061 365.325155,240.031237 365.10224,239.996144 C361.616859,239.447302 358.973632,237.640519 357.282186,234.545103 C355.104189,230.558986 355.751338,225.698569 358.840212,222.377385 C360.57183,220.515535 362.712126,219.416293 365.230626,219.087628 C370.638695,218.381738 375.721267,222.012803 376.851857,227.3735 C377.781767,231.782657 375.826136,236.270429 371.964838,238.593068 C370.707326,239.349444 369.350802,239.819397 367.897737,240.011171 C367.785822,240.025923 367.713713,240.047455 367.714171,240.184253 C367.717465,241.260223 367.716001,242.3361 367.716001,243.448537 C367.809248,243.448537 367.889044,243.448262 367.968931,243.448629 C368.433886,243.450919 368.899756,243.436534 369.363705,243.459899 C369.970316,243.490319 370.415231,243.946069 370.460802,244.54613 C370.50436,245.12017 370.115632,245.638226 369.535284,245.761097 C369.395825,245.790601 369.247581,245.783271 369.103363,245.784095 C368.647925,245.786661 368.192486,245.785012 367.715452,245.785012" id="Page-1-Copy-2"></path>
        </g>
    </g>
</svg>