<?xml version="1.0" encoding="UTF-8"?>
<svg width="26px" height="26px" viewBox="0 0 26 26" version="1.1" xmlns="http://www.w3.org/2000/svg" xmlns:xlink="http://www.w3.org/1999/xlink">
    <!-- Generator: sketchtool 47.1 (45422) - http://www.bohemiancoding.com/sketch -->
    <title>97E409D3-52DB-4F0D-9A3A-134AD42F54C2</title>
    <desc>Created with sketchtool.</desc>
    <defs>
        <polyline id="path-1" points="0 0.0696069209 25.335246 0.0696069209 25.335246 25.4241421 0 25.4241421"></polyline>
    </defs>
    <g id="Page-1" stroke="none" stroke-width="1" fill="none" fill-rule="evenodd">
        <g id="Assets" transform="translate(-277.000000, -215.000000)">
            <g id="Page-1-Copy" transform="translate(277.000000, 215.000000)">
                <mask id="mask-2" fill="white">
                    <use xlink:href="#path-1"></use>
                </mask>
                <g id="Clip-2"></g>
                <path d="M10.9445992,22.988176 C15.6278476,22.988176 19.4389425,19.1933133 19.4780282,14.5632628 C19.5173992,9.88864866 15.762603,5.93552783 10.956867,5.92705312 C6.25935369,5.91876885 2.43275763,9.74124576 2.43171154,14.4560434 C2.43057036,19.1815059 6.22863669,22.988176 10.9445992,22.988176 M17.7595882,5.87496696 C18.8859414,4.74735388 19.9983152,3.63373837 21.1311352,2.49974545 C20.8379448,2.49974545 20.5500799,2.50364954 20.2623102,2.4986028 C20.0092516,2.49422261 19.7534351,2.50107855 19.5039903,2.46594182 C18.8746247,2.37719538 18.4541917,1.80824688 18.506306,1.14445776 C18.5523339,0.560083376 19.070814,0.0752154676 19.672696,0.0733110375 C21.170316,0.0685499622 22.667936,0.0682642977 24.165461,0.0735014805 C24.7595448,0.0755011321 25.2639502,0.535897114 25.3120704,1.13169808 C25.3425972,1.51010834 25.3344186,1.89223225 25.333848,2.27264216 C25.331851,3.43872472 25.3431678,4.60518817 25.3132116,5.77060419 C25.2960937,6.43848783 24.7387181,6.92307007 24.0902376,6.90612064 C23.4290138,6.88879033 22.9202339,6.36821436 22.9103436,5.69147511 C22.9037817,5.2393634 22.9065396,4.78706125 22.9043523,4.33494954 C22.9042572,4.31990454 22.8953179,4.30504999 22.9062543,4.33904406 C21.8083356,5.43847157 20.6937746,6.55475329 19.5662801,7.68398513 C21.514004,10.2205908 22.2786005,13.1479856 21.7264553,16.3812318 C21.2587581,19.1199928 19.8861934,21.3529371 17.7165083,23.0787317 C13.4267798,26.4908991 7.15119269,26.1399126 3.2876031,22.2872505 C-0.698474081,18.3124192 -1.11082361,12.0731252 2.32967025,7.70845705 C3.54712844,6.16405945 5.06405358,5.00873692 6.89109676,4.27724531 C8.71775954,3.54584892 10.6127986,3.3345524 12.5560528,3.61821726 C14.4991168,3.90188213 16.2412365,4.66974835 17.7595882,5.87496696" id="Fill-1" fill="#FFFFFF" mask="url(#mask-2)"></path>
            </g>
        </g>
    </g>
</svg>